<svg width="25" height="25" viewBox="0 0 32 31" fill="none" xmlns="http://www.w3.org/2000/svg">
<rect x="1.3584" y="15.2734" width="21.06" height="21.06" rx="3.73" transform="rotate(-45 1.3584 15.2734)" fill="#161723"/>
<rect x="1.3584" y="15.2734" width="21.06" height="21.06" rx="3.73" transform="rotate(-45 1.3584 15.2734)" stroke="url(#paint0_linear_5010_26219)" stroke-width="0.54"/>
<mask id="mask0_5010_26219" style="mask-type:luminance" maskUnits="userSpaceOnUse" x="0" y="0" width="32" height="31">
<path d="M16.2501 -6.8982e-05L0.976562 15.2734L16.2501 30.5469L31.5236 15.2734L16.2501 -6.8982e-05Z" fill="white"/>
</mask>
<g mask="url(#mask0_5010_26219)">
<path d="M23.0073 19.3116C22.6168 19.7021 21.9836 19.7021 21.5931 19.3116L18.2622 15.9807C17.8716 15.5902 17.8716 14.957 18.2622 14.5665L21.5931 11.2356C21.9836 10.8451 22.6168 10.8451 23.0073 11.2356L26.3382 14.5665C26.7287 14.9571 26.7287 15.5902 26.3382 15.9807L23.0073 19.3116ZM10.8975 19.3116C10.507 19.7021 9.87386 19.7021 9.48334 19.3116L6.15243 15.9807C5.7619 15.5902 5.7619 14.957 6.15242 14.5665L9.48334 11.2356C9.87386 10.8451 10.507 10.8451 10.8976 11.2356L14.2285 14.5665C14.619 14.957 14.619 15.5902 14.2285 15.9807L10.8975 19.3116ZM16.9524 25.3665C16.5619 25.7571 15.9287 25.7571 15.5382 25.3665L12.2073 22.0356C11.8168 21.6451 11.8168 21.012 12.2073 20.6214L15.5382 17.2905C15.9287 16.8999 16.5619 16.8999 16.9524 17.2905L20.2833 20.6214C20.6738 21.012 20.6738 21.6451 20.2833 22.0356L16.9524 25.3665ZM16.9524 13.2568C16.5619 13.6473 15.9287 13.6473 15.5382 13.2568L12.2073 9.92587C11.8168 9.53535 11.8168 8.90218 12.2073 8.51166L15.5382 5.18074C15.9287 4.79022 16.5619 4.79022 16.9524 5.18075L20.2833 8.51166C20.6738 8.90218 20.6738 9.53534 20.2833 9.92587L16.9524 13.2568Z" fill="url(#paint1_linear_5010_26219)"/>
</g>
<defs>
<linearGradient id="paint0_linear_5010_26219" x1="0.976562" y1="26.0734" x2="22.5766" y2="26.0734" gradientUnits="userSpaceOnUse">
<stop stop-color="#006AFF"/>
<stop offset="1" stop-color="#0058FB"/>
</linearGradient>
<linearGradient id="paint1_linear_5010_26219" x1="16.2453" y1="4.47363" x2="16.2453" y2="26.0736" gradientUnits="userSpaceOnUse">
<stop stop-color="#0058FB"/>
<stop offset="1" stop-color="#006AFF"/>
</linearGradient>
</defs>
</svg>
